<svg xmlns="http://www.w3.org/2000/svg" width="25" height="25" viewBox="0 0 25 25">
  <defs>
    <style>
      .cls-1 {
        fill: #fc3;
        fill-rule: evenodd;
      }
    </style>
  </defs>
  <path id="icon" class="cls-1" d="M1371.03,46.819a21.036,21.036,0,0,0,9.15,9.153l3.06-3.055a1.37,1.37,0,0,1,1.41-.334,15.887,15.887,0,0,0,4.96.791,1.4,1.4,0,0,1,1.39,1.389v4.847A1.4,1.4,0,0,1,1389.61,61,23.609,23.609,0,0,1,1366,37.389,1.39,1.39,0,0,1,1367.39,36h4.86a1.4,1.4,0,0,1,1.39,1.389,15.888,15.888,0,0,0,.79,4.958,1.4,1.4,0,0,1-.35,1.417l-3.05,3.056h0Z" transform="translate(-1366 -36)"/>
</svg>
